#define black_diamond_with_question_mark_width 9
#define black_diamond_with_question_mark_height 9
static unsigned char black_diamond_with_question_mark_bits[] = {
   0x10, 0x00, 0x38, 0x00, 0x44, 0x00, 0xd6, 0x00, 0xdf, 0x01, 0xee, 0x00,
   0x7c, 0x00, 0x28, 0x00, 0x10, 0x00 };
